# Blender v2.78 (sub 0) OBJ File: 'grnd.blend'
# www.blender.org
mtllib grnd.mtl
o Cylinder
v 0.000000 -0.025000 -0.200000
v 0.000000 0.025000 -0.200000
v 0.039018 -0.025000 -0.196157
v 0.039018 0.025000 -0.196157
v 0.076537 -0.025000 -0.184776
v 0.076537 0.025000 -0.184776
v 0.111114 -0.025000 -0.166294
v 0.111114 0.025000 -0.166294
v 0.141421 -0.025000 -0.141421
v 0.141421 0.025000 -0.141421
v 0.166294 -0.025000 -0.111114
v 0.166294 0.025000 -0.111114
v 0.184776 -0.025000 -0.076537
v 0.184776 0.025000 -0.076537
v 0.196157 -0.025000 -0.039018
v 0.196157 0.025000 -0.039018
v 0.200000 -0.025000 -0.000000
v 0.200000 0.025000 -0.000000
v 0.196157 -0.025000 0.039018
v 0.196157 0.025000 0.039018
v 0.184776 -0.025000 0.076537
v 0.184776 0.025000 0.076537
v 0.166294 -0.025000 0.111114
v 0.166294 0.025000 0.111114
v 0.141421 -0.025000 0.141421
v 0.141421 0.025000 0.141421
v 0.111114 -0.025000 0.166294
v 0.111114 0.025000 0.166294
v 0.076537 -0.025000 0.184776
v 0.076537 0.025000 0.184776
v 0.039018 -0.025000 0.196157
v 0.039018 0.025000 0.196157
v -0.000000 -0.025000 0.200000
v -0.000000 0.025000 0.200000
v -0.039018 -0.025000 0.196157
v -0.039018 0.025000 0.196157
v -0.076537 -0.025000 0.184776
v -0.076537 0.025000 0.184776
v -0.111114 -0.025000 0.166294
v -0.111114 0.025000 0.166294
v -0.141421 -0.025000 0.141421
v -0.141421 0.025000 0.141421
v -0.166294 -0.025000 0.111114
v -0.166294 0.025000 0.111114
v -0.184776 -0.025000 0.076537
v -0.184776 0.025000 0.076537
v -0.196157 -0.025000 0.039018
v -0.196157 0.025000 0.039018
v -0.200000 -0.025000 -0.000000
v -0.200000 0.025000 -0.000000
v -0.196157 -0.025000 -0.039018
v -0.196157 0.025000 -0.039018
v -0.184776 -0.025000 -0.076537
v -0.184776 0.025000 -0.076537
v -0.166294 -0.025000 -0.111114
v -0.166294 0.025000 -0.111114
v -0.141421 -0.025000 -0.141422
v -0.141421 0.025000 -0.141422
v -0.111114 -0.025000 -0.166294
v -0.111114 0.025000 -0.166294
v -0.076536 -0.025000 -0.184776
v -0.076536 0.025000 -0.184776
v -0.039018 -0.025000 -0.196157
v -0.039018 0.025000 -0.196157
vt 0.1613 0.4342
vt 0.1519 0.5340
vt 0.1047 0.5029
vt 0.1942 0.4556
vt 0.2042 0.5554
vt 0.2307 0.4703
vt 0.2597 0.5664
vt 0.2694 0.4777
vt 0.3164 0.5664
vt 0.3087 0.4775
vt 0.3719 0.5555
vt 0.3473 0.4699
vt 0.4241 0.5340
vt 0.3835 0.4550
vt 0.4712 0.5028
vt 0.4161 0.4333
vt 0.5111 0.4632
vt 0.4438 0.4058
vt 0.5425 0.4167
vt 0.4655 0.3737
vt 0.5641 0.3651
vt 0.4805 0.3383
vt 0.5752 0.3103
vt 0.4879 0.3006
vt 0.5752 0.2544
vt 0.4877 0.2623
vt 0.5640 0.1995
vt 0.4797 0.2247
vt 0.5421 0.1478
vt 0.4644 0.1894
vt 0.5104 0.1015
vt 0.4423 0.1577
vt 0.4701 0.0623
vt 0.4142 0.1309
vt 0.4229 0.0317
vt 0.3813 0.1100
vt 0.3707 0.0107
vt 0.3447 0.0959
vt 0.3154 0.0001
vt 0.3059 0.0886
vt 0.2591 0.0001
vt 0.2665 0.0887
vt 0.2038 0.0108
vt 0.2279 0.0960
vt 0.1517 0.0318
vt 0.1916 0.1107
vt 0.1048 0.0624
vt 0.1590 0.1320
vt 0.0647 0.1016
vt 0.1313 0.1590
vt 0.0331 0.1477
vt 0.1097 0.1908
vt 0.0113 0.1992
vt 0.0948 0.2261
vt 0.0002 0.2540
vt 0.0874 0.2638
vt 0.0001 0.3100
vt 0.0877 0.3021
vt 0.0112 0.3649
vt 0.0957 0.3398
vt 0.0329 0.4167
vt 0.1110 0.3753
vt 0.0645 0.4633
vt 0.1332 0.4072
vt 0.2800 0.9916
vt 0.0084 0.8464
vt 0.4251 0.7200
vt 0.1536 0.5749
vt 0.1954 0.5666
vt 0.2381 0.5666
vt 0.2800 0.5749
vt 0.3194 0.5912
vt 0.3549 0.6150
vt 0.3850 0.6451
vt 0.4088 0.6806
vt 0.4334 0.7619
vt 0.4334 0.8046
vt 0.4251 0.8464
vt 0.4088 0.8859
vt 0.3850 0.9214
vt 0.3549 0.9515
vt 0.3194 0.9752
vt 0.2381 0.9999
vt 0.1954 0.9999
vt 0.1536 0.9916
vt 0.1141 0.9752
vt 0.0786 0.9515
vt 0.0485 0.9214
vt 0.0248 0.8859
vt 0.0001 0.8046
vt 0.0248 0.6806
vt 0.0001 0.7619
vt 0.0084 0.7200
vt 0.0485 0.6451
vt 0.0786 0.6150
vt 0.1141 0.5912
vn 0.0980 0.0000 -0.9952
vn 0.2903 0.0000 -0.9569
vn 0.4714 0.0000 -0.8819
vn 0.6344 0.0000 -0.7730
vn 0.7730 0.0000 -0.6344
vn 0.8819 0.0000 -0.4714
vn 0.9569 0.0000 -0.2903
vn 0.9952 0.0000 -0.0980
vn 0.9952 0.0000 0.0980
vn 0.9569 0.0000 0.2903
vn 0.8819 0.0000 0.4714
vn 0.7730 0.0000 0.6344
vn 0.6344 0.0000 0.7730
vn 0.4714 0.0000 0.8819
vn 0.2903 0.0000 0.9569
vn 0.0980 0.0000 0.9952
vn -0.0980 0.0000 0.9952
vn -0.2903 0.0000 0.9569
vn -0.4714 0.0000 0.8819
vn -0.6344 0.0000 0.7730
vn -0.7730 0.0000 0.6344
vn -0.8819 0.0000 0.4714
vn -0.9569 0.0000 0.2903
vn -0.9952 0.0000 0.0980
vn -0.9952 0.0000 -0.0980
vn -0.9569 0.0000 -0.2903
vn -0.8819 0.0000 -0.4714
vn -0.7730 0.0000 -0.6344
vn -0.6344 0.0000 -0.7730
vn -0.4714 0.0000 -0.8819
vn 0.0000 1.0000 0.0000
vn -0.2903 0.0000 -0.9569
vn -0.0980 0.0000 -0.9952
vn 0.0000 -1.0000 0.0000
usemtl None
s off
f 2/1/1 3/2/1 1/3/1
f 4/4/2 5/5/2 3/2/2
f 6/6/3 7/7/3 5/5/3
f 8/8/4 9/9/4 7/7/4
f 10/10/5 11/11/5 9/9/5
f 12/12/6 13/13/6 11/11/6
f 14/14/7 15/15/7 13/13/7
f 16/16/8 17/17/8 15/15/8
f 18/18/9 19/19/9 17/17/9
f 20/20/10 21/21/10 19/19/10
f 22/22/11 23/23/11 21/21/11
f 24/24/12 25/25/12 23/23/12
f 26/26/13 27/27/13 25/25/13
f 28/28/14 29/29/14 27/27/14
f 30/30/15 31/31/15 29/29/15
f 32/32/16 33/33/16 31/31/16
f 34/34/17 35/35/17 33/33/17
f 36/36/18 37/37/18 35/35/18
f 38/38/19 39/39/19 37/37/19
f 40/40/20 41/41/20 39/39/20
f 42/42/21 43/43/21 41/41/21
f 44/44/22 45/45/22 43/43/22
f 46/46/23 47/47/23 45/45/23
f 48/48/24 49/49/24 47/47/24
f 50/50/25 51/51/25 49/49/25
f 52/52/26 53/53/26 51/51/26
f 54/54/27 55/55/27 53/53/27
f 56/56/28 57/57/28 55/55/28
f 58/58/29 59/59/29 57/57/29
f 60/60/30 61/61/30 59/59/30
f 38/38/31 22/22/31 54/54/31
f 62/62/32 63/63/32 61/61/32
f 64/64/33 1/3/33 63/63/33
f 31/65/34 47/66/34 15/67/34
f 2/1/1 4/4/1 3/2/1
f 4/4/2 6/6/2 5/5/2
f 6/6/3 8/8/3 7/7/3
f 8/8/4 10/10/4 9/9/4
f 10/10/5 12/12/5 11/11/5
f 12/12/6 14/14/6 13/13/6
f 14/14/7 16/16/7 15/15/7
f 16/16/8 18/18/8 17/17/8
f 18/18/9 20/20/9 19/19/9
f 20/20/10 22/22/10 21/21/10
f 22/22/11 24/24/11 23/23/11
f 24/24/12 26/26/12 25/25/12
f 26/26/13 28/28/13 27/27/13
f 28/28/14 30/30/14 29/29/14
f 30/30/15 32/32/15 31/31/15
f 32/32/16 34/34/16 33/33/16
f 34/34/17 36/36/17 35/35/17
f 36/36/18 38/38/18 37/37/18
f 38/38/19 40/40/19 39/39/19
f 40/40/20 42/42/20 41/41/20
f 42/42/21 44/44/21 43/43/21
f 44/44/22 46/46/22 45/45/22
f 46/46/23 48/48/23 47/47/23
f 48/48/24 50/50/24 49/49/24
f 50/50/25 52/52/25 51/51/25
f 52/52/26 54/54/26 53/53/26
f 54/54/27 56/56/27 55/55/27
f 56/56/28 58/58/28 57/57/28
f 58/58/29 60/60/29 59/59/29
f 60/60/30 62/62/30 61/61/30
f 6/6/31 4/4/31 2/1/31
f 2/1/31 64/64/31 6/6/31
f 62/62/31 60/60/31 58/58/31
f 58/58/31 56/56/31 54/54/31
f 54/54/31 52/52/31 50/50/31
f 50/50/31 48/48/31 46/46/31
f 46/46/31 44/44/31 38/38/31
f 42/42/31 40/40/31 38/38/31
f 38/38/31 36/36/31 34/34/31
f 34/34/31 32/32/31 30/30/31
f 30/30/31 28/28/31 26/26/31
f 26/26/31 24/24/31 22/22/31
f 22/22/31 20/20/31 18/18/31
f 18/18/31 16/16/31 22/22/31
f 14/14/31 12/12/31 10/10/31
f 10/10/31 8/8/31 6/6/31
f 6/6/31 64/64/31 62/62/31
f 62/62/31 58/58/31 6/6/31
f 54/54/31 50/50/31 38/38/31
f 44/44/31 42/42/31 38/38/31
f 38/38/31 34/34/31 22/22/31
f 30/30/31 26/26/31 22/22/31
f 22/22/31 16/16/31 14/14/31
f 14/14/31 10/10/31 22/22/31
f 6/6/31 58/58/31 54/54/31
f 50/50/31 46/46/31 38/38/31
f 34/34/31 30/30/31 22/22/31
f 22/22/31 10/10/31 6/6/31
f 6/6/31 54/54/31 22/22/31
f 62/62/32 64/64/32 63/63/32
f 64/64/33 2/1/33 1/3/33
f 63/68/34 1/69/34 3/70/34
f 3/70/34 5/71/34 7/72/34
f 7/72/34 9/73/34 11/74/34
f 11/74/34 13/75/34 7/72/34
f 15/67/34 17/76/34 19/77/34
f 19/77/34 21/78/34 15/67/34
f 23/79/34 25/80/34 31/65/34
f 27/81/34 29/82/34 31/65/34
f 31/65/34 33/83/34 35/84/34
f 35/84/34 37/85/34 39/86/34
f 39/86/34 41/87/34 43/88/34
f 43/88/34 45/89/34 47/66/34
f 47/66/34 49/90/34 55/91/34
f 51/92/34 53/93/34 55/91/34
f 55/91/34 57/94/34 63/68/34
f 59/95/34 61/96/34 63/68/34
f 63/68/34 3/70/34 15/67/34
f 7/72/34 13/75/34 15/67/34
f 15/67/34 21/78/34 23/79/34
f 25/80/34 27/81/34 31/65/34
f 31/65/34 35/84/34 47/66/34
f 39/86/34 43/88/34 47/66/34
f 49/90/34 51/92/34 55/91/34
f 57/94/34 59/95/34 63/68/34
f 3/70/34 7/72/34 15/67/34
f 15/67/34 23/79/34 31/65/34
f 35/84/34 39/86/34 47/66/34
f 47/66/34 55/91/34 63/68/34
f 63/68/34 15/67/34 47/66/34
